G04 (created by PCBNEW (2013-07-07 BZR 4022)-stable) date 10/4/2015 12:30:07 PM*
%MOIN*%
G04 Gerber Fmt 3.4, Leading zero omitted, Abs format*
%FSLAX34Y34*%
G01*
G70*
G90*
G04 APERTURE LIST*
%ADD10C,0.00590551*%
%ADD11R,0.0787402X0.015748*%
%ADD12R,0.0551181X0.0629921*%
%ADD13R,0.0748031X0.0748031*%
%ADD14O,0.0629921X0.0354331*%
%ADD15R,0.0276X0.0394*%
%ADD16R,0.0315X0.0394*%
%ADD17R,0.055X0.035*%
%ADD18R,0.035X0.055*%
%ADD19R,0.045X0.025*%
%ADD20R,0.025X0.045*%
%ADD21R,0.06X0.06*%
%ADD22C,0.06*%
%ADD23R,0.055X0.055*%
%ADD24C,0.055*%
%ADD25R,0.02X0.045*%
%ADD26C,0.2*%
G04 APERTURE END LIST*
G54D10*
G54D11*
X63525Y-79000D03*
X63525Y-79255D03*
X63525Y-79511D03*
X63525Y-78744D03*
X63525Y-78507D03*
G54D12*
X63308Y-80259D03*
X63288Y-77740D03*
G54D13*
X62600Y-79472D03*
X62600Y-78527D03*
G54D14*
X62600Y-80299D03*
X62600Y-77700D03*
G54D15*
X73375Y-77300D03*
X73750Y-77300D03*
X74125Y-77300D03*
X74125Y-78300D03*
X73750Y-78300D03*
X73375Y-78300D03*
G54D16*
X72250Y-79117D03*
X72625Y-79983D03*
X71875Y-79983D03*
G54D17*
X73750Y-79925D03*
X73750Y-79175D03*
G54D18*
X83625Y-84000D03*
X84375Y-84000D03*
X70625Y-84000D03*
X71375Y-84000D03*
G54D17*
X67000Y-74375D03*
X67000Y-73625D03*
X67000Y-66375D03*
X67000Y-65625D03*
X72000Y-77675D03*
X72000Y-78425D03*
X72750Y-77175D03*
X72750Y-77925D03*
X91000Y-64375D03*
X91000Y-63625D03*
X92000Y-76375D03*
X92000Y-75625D03*
X75000Y-78425D03*
X75000Y-79175D03*
G54D18*
X73125Y-76300D03*
X73875Y-76300D03*
X74625Y-76300D03*
X75375Y-76300D03*
G54D17*
X90000Y-66375D03*
X90000Y-65625D03*
X90000Y-74375D03*
X90000Y-73625D03*
X78000Y-76675D03*
X78000Y-75925D03*
X64500Y-74125D03*
X64500Y-73375D03*
G54D19*
X68000Y-66300D03*
X68000Y-65700D03*
X89000Y-70300D03*
X89000Y-69700D03*
X68000Y-62300D03*
X68000Y-61700D03*
X89000Y-74300D03*
X89000Y-73700D03*
X89000Y-78300D03*
X89000Y-77700D03*
X68000Y-70300D03*
X68000Y-69700D03*
X68000Y-74300D03*
X68000Y-73700D03*
X68000Y-78300D03*
X68000Y-77700D03*
G54D20*
X89700Y-84000D03*
X90300Y-84000D03*
X83700Y-83000D03*
X84300Y-83000D03*
X77700Y-84000D03*
X78300Y-84000D03*
X70700Y-83000D03*
X71300Y-83000D03*
X65700Y-84000D03*
X66300Y-84000D03*
G54D19*
X92000Y-58300D03*
X92000Y-57700D03*
X92000Y-64300D03*
X92000Y-63700D03*
X92000Y-70300D03*
X92000Y-69700D03*
X91000Y-76300D03*
X91000Y-75700D03*
X92000Y-82300D03*
X92000Y-81700D03*
X89000Y-62300D03*
X89000Y-61700D03*
X89000Y-66300D03*
X89000Y-65700D03*
G54D21*
X83750Y-77800D03*
G54D22*
X84750Y-77800D03*
X83750Y-78800D03*
X84750Y-78800D03*
X83750Y-79800D03*
X84750Y-79800D03*
G54D18*
X80975Y-81800D03*
X80225Y-81800D03*
X79375Y-82400D03*
X78625Y-82400D03*
X77175Y-82200D03*
X76425Y-82200D03*
G54D19*
X80250Y-82450D03*
X80250Y-83050D03*
X78000Y-82450D03*
X78000Y-83050D03*
X75750Y-82450D03*
X75750Y-83050D03*
G54D18*
X81625Y-58000D03*
X82375Y-58000D03*
X73625Y-58000D03*
X74375Y-58000D03*
X71625Y-57000D03*
X72375Y-57000D03*
X83625Y-57000D03*
X84375Y-57000D03*
X82625Y-82000D03*
X83375Y-82000D03*
X73125Y-82000D03*
X73875Y-82000D03*
G54D17*
X65000Y-76375D03*
X65000Y-75625D03*
X65000Y-65375D03*
X65000Y-64625D03*
G54D20*
X68700Y-81000D03*
X69300Y-81000D03*
X85700Y-59000D03*
X86300Y-59000D03*
X81700Y-59000D03*
X82300Y-59000D03*
X77700Y-59000D03*
X78300Y-59000D03*
X73700Y-59000D03*
X74300Y-59000D03*
X69700Y-59000D03*
X70300Y-59000D03*
X87700Y-81000D03*
X88300Y-81000D03*
X82700Y-81000D03*
X83300Y-81000D03*
X77700Y-81000D03*
X78300Y-81000D03*
X73200Y-81000D03*
X73800Y-81000D03*
X65700Y-56000D03*
X66300Y-56000D03*
G54D19*
X64000Y-58300D03*
X64000Y-57700D03*
X64000Y-65300D03*
X64000Y-64700D03*
X64000Y-70300D03*
X64000Y-69700D03*
X64000Y-76300D03*
X64000Y-75700D03*
X64000Y-82300D03*
X64000Y-81700D03*
G54D20*
X89700Y-56000D03*
X90300Y-56000D03*
X83700Y-56000D03*
X84300Y-56000D03*
X77700Y-56000D03*
X78300Y-56000D03*
X71700Y-56000D03*
X72300Y-56000D03*
G54D17*
X79000Y-76675D03*
X79000Y-75925D03*
X80000Y-76675D03*
X80000Y-75925D03*
X81000Y-76675D03*
X81000Y-75925D03*
G54D18*
X77875Y-75000D03*
X77125Y-75000D03*
G54D17*
X79000Y-75125D03*
X79000Y-74375D03*
X80000Y-75125D03*
X80000Y-74375D03*
G54D18*
X81125Y-75000D03*
X81875Y-75000D03*
G54D17*
X77000Y-78425D03*
X77000Y-79175D03*
G54D23*
X63000Y-73300D03*
G54D24*
X63000Y-74300D03*
G54D23*
X76000Y-84000D03*
X79800Y-84000D03*
X81600Y-84000D03*
X93000Y-80400D03*
G54D25*
X78250Y-79650D03*
X78750Y-79650D03*
X79250Y-79650D03*
X79750Y-79650D03*
X80250Y-79650D03*
X80750Y-79650D03*
X81250Y-79650D03*
X81250Y-77550D03*
X80750Y-77550D03*
X80250Y-77550D03*
X79750Y-77550D03*
X79250Y-77550D03*
X78750Y-77550D03*
X78250Y-77550D03*
G54D17*
X64750Y-78625D03*
X64750Y-79375D03*
G54D26*
X64000Y-56000D03*
X92000Y-56000D03*
X92000Y-84000D03*
X64000Y-84000D03*
M02*
