G04 (created by PCBNEW (2013-07-07 BZR 4022)-stable) date 10/4/2015 12:30:07 PM*
%MOIN*%
G04 Gerber Fmt 3.4, Leading zero omitted, Abs format*
%FSLAX34Y34*%
G01*
G70*
G90*
G04 APERTURE LIST*
%ADD10C,0.00590551*%
%ADD11R,0.0787402X0.015748*%
%ADD12R,0.0551181X0.0629921*%
%ADD13R,0.0748031X0.0748031*%
%ADD14O,0.0629921X0.0354331*%
%ADD15R,0.0276X0.0394*%
%ADD16R,0.0315X0.0394*%
%ADD17R,0.055X0.035*%
%ADD18R,0.035X0.055*%
%ADD19R,0.045X0.025*%
%ADD20R,0.025X0.045*%
%ADD21R,0.06X0.06*%
%ADD22C,0.06*%
%ADD23R,0.055X0.055*%
%ADD24C,0.055*%
%ADD25R,0.02X0.045*%
%ADD26C,0.2*%
%ADD27C,0.035*%
%ADD28C,0.01*%
G04 APERTURE END LIST*
G54D10*
G54D11*
X63525Y-79000D03*
X63525Y-79255D03*
X63525Y-79511D03*
X63525Y-78744D03*
X63525Y-78507D03*
G54D12*
X63308Y-80259D03*
X63288Y-77740D03*
G54D13*
X62600Y-79472D03*
X62600Y-78527D03*
G54D14*
X62600Y-80299D03*
X62600Y-77700D03*
G54D15*
X73375Y-77300D03*
X73750Y-77300D03*
X74125Y-77300D03*
X74125Y-78300D03*
X73750Y-78300D03*
X73375Y-78300D03*
G54D16*
X72250Y-79117D03*
X72625Y-79983D03*
X71875Y-79983D03*
G54D17*
X73750Y-79925D03*
X73750Y-79175D03*
G54D18*
X83625Y-84000D03*
X84375Y-84000D03*
X70625Y-84000D03*
X71375Y-84000D03*
G54D17*
X67000Y-74375D03*
X67000Y-73625D03*
X67000Y-66375D03*
X67000Y-65625D03*
X72000Y-77675D03*
X72000Y-78425D03*
X72750Y-77175D03*
X72750Y-77925D03*
X91000Y-64375D03*
X91000Y-63625D03*
X92000Y-76375D03*
X92000Y-75625D03*
X75000Y-78425D03*
X75000Y-79175D03*
G54D18*
X73125Y-76300D03*
X73875Y-76300D03*
X74625Y-76300D03*
X75375Y-76300D03*
G54D17*
X90000Y-66375D03*
X90000Y-65625D03*
X90000Y-74375D03*
X90000Y-73625D03*
X78000Y-76675D03*
X78000Y-75925D03*
X64500Y-74125D03*
X64500Y-73375D03*
G54D19*
X68000Y-66300D03*
X68000Y-65700D03*
X89000Y-70300D03*
X89000Y-69700D03*
X68000Y-62300D03*
X68000Y-61700D03*
X89000Y-74300D03*
X89000Y-73700D03*
X89000Y-78300D03*
X89000Y-77700D03*
X68000Y-70300D03*
X68000Y-69700D03*
X68000Y-74300D03*
X68000Y-73700D03*
X68000Y-78300D03*
X68000Y-77700D03*
G54D20*
X89700Y-84000D03*
X90300Y-84000D03*
X83700Y-83000D03*
X84300Y-83000D03*
X77700Y-84000D03*
X78300Y-84000D03*
X70700Y-83000D03*
X71300Y-83000D03*
X65700Y-84000D03*
X66300Y-84000D03*
G54D19*
X92000Y-58300D03*
X92000Y-57700D03*
X92000Y-64300D03*
X92000Y-63700D03*
X92000Y-70300D03*
X92000Y-69700D03*
X91000Y-76300D03*
X91000Y-75700D03*
X92000Y-82300D03*
X92000Y-81700D03*
X89000Y-62300D03*
X89000Y-61700D03*
X89000Y-66300D03*
X89000Y-65700D03*
G54D21*
X83750Y-77800D03*
G54D22*
X84750Y-77800D03*
X83750Y-78800D03*
X84750Y-78800D03*
X83750Y-79800D03*
X84750Y-79800D03*
G54D18*
X80975Y-81800D03*
X80225Y-81800D03*
X79375Y-82400D03*
X78625Y-82400D03*
X77175Y-82200D03*
X76425Y-82200D03*
G54D19*
X80250Y-82450D03*
X80250Y-83050D03*
X78000Y-82450D03*
X78000Y-83050D03*
X75750Y-82450D03*
X75750Y-83050D03*
G54D18*
X81625Y-58000D03*
X82375Y-58000D03*
X73625Y-58000D03*
X74375Y-58000D03*
X71625Y-57000D03*
X72375Y-57000D03*
X83625Y-57000D03*
X84375Y-57000D03*
X82625Y-82000D03*
X83375Y-82000D03*
X73125Y-82000D03*
X73875Y-82000D03*
G54D17*
X65000Y-76375D03*
X65000Y-75625D03*
X65000Y-65375D03*
X65000Y-64625D03*
G54D20*
X68700Y-81000D03*
X69300Y-81000D03*
X85700Y-59000D03*
X86300Y-59000D03*
X81700Y-59000D03*
X82300Y-59000D03*
X77700Y-59000D03*
X78300Y-59000D03*
X73700Y-59000D03*
X74300Y-59000D03*
X69700Y-59000D03*
X70300Y-59000D03*
X87700Y-81000D03*
X88300Y-81000D03*
X82700Y-81000D03*
X83300Y-81000D03*
X77700Y-81000D03*
X78300Y-81000D03*
X73200Y-81000D03*
X73800Y-81000D03*
X65700Y-56000D03*
X66300Y-56000D03*
G54D19*
X64000Y-58300D03*
X64000Y-57700D03*
X64000Y-65300D03*
X64000Y-64700D03*
X64000Y-70300D03*
X64000Y-69700D03*
X64000Y-76300D03*
X64000Y-75700D03*
X64000Y-82300D03*
X64000Y-81700D03*
G54D20*
X89700Y-56000D03*
X90300Y-56000D03*
X83700Y-56000D03*
X84300Y-56000D03*
X77700Y-56000D03*
X78300Y-56000D03*
X71700Y-56000D03*
X72300Y-56000D03*
G54D17*
X79000Y-76675D03*
X79000Y-75925D03*
X80000Y-76675D03*
X80000Y-75925D03*
X81000Y-76675D03*
X81000Y-75925D03*
G54D18*
X77875Y-75000D03*
X77125Y-75000D03*
G54D17*
X79000Y-75125D03*
X79000Y-74375D03*
X80000Y-75125D03*
X80000Y-74375D03*
G54D18*
X81125Y-75000D03*
X81875Y-75000D03*
G54D17*
X77000Y-78425D03*
X77000Y-79175D03*
G54D23*
X63000Y-73300D03*
G54D24*
X63000Y-74300D03*
G54D23*
X76000Y-84000D03*
X79800Y-84000D03*
X81600Y-84000D03*
X93000Y-80400D03*
G54D25*
X78250Y-79650D03*
X78750Y-79650D03*
X79250Y-79650D03*
X79750Y-79650D03*
X80250Y-79650D03*
X80750Y-79650D03*
X81250Y-79650D03*
X81250Y-77550D03*
X80750Y-77550D03*
X80250Y-77550D03*
X79750Y-77550D03*
X79250Y-77550D03*
X78750Y-77550D03*
X78250Y-77550D03*
G54D17*
X64750Y-78625D03*
X64750Y-79375D03*
G54D26*
X64000Y-56000D03*
X92000Y-56000D03*
X92000Y-84000D03*
X64000Y-84000D03*
G54D27*
X73000Y-79000D03*
X75250Y-79750D03*
X84500Y-81000D03*
X77750Y-80250D03*
X68600Y-76200D03*
X67500Y-75700D03*
X66000Y-60700D03*
X66800Y-59800D03*
X67200Y-80000D03*
X67200Y-78300D03*
X66750Y-57250D03*
X65500Y-57750D03*
X75000Y-78000D03*
X66400Y-73000D03*
X82800Y-79400D03*
X85500Y-79300D03*
X79800Y-80400D03*
X80800Y-80400D03*
X76500Y-75000D03*
X78250Y-73750D03*
X81000Y-74000D03*
X82500Y-75000D03*
X78700Y-83100D03*
X70100Y-75900D03*
X68500Y-72500D03*
X65600Y-72500D03*
X70300Y-79400D03*
X80750Y-83500D03*
X76500Y-83000D03*
X76750Y-79750D03*
X77500Y-77600D03*
X75500Y-76800D03*
X75750Y-78800D03*
X66400Y-79800D03*
X66400Y-78200D03*
X78800Y-78800D03*
X84100Y-76800D03*
X70300Y-78300D03*
X71100Y-78200D03*
G54D28*
X89000Y-78300D02*
X88450Y-78300D01*
X88250Y-78500D02*
X88450Y-78300D01*
X88250Y-79250D02*
X88250Y-78500D01*
X86500Y-81000D02*
X88250Y-79250D01*
X84500Y-81000D02*
X86500Y-81000D01*
X75000Y-80250D02*
X77750Y-80250D01*
X74675Y-79925D02*
X75000Y-80250D01*
X74675Y-79925D02*
X73750Y-79925D01*
X93000Y-80400D02*
X93000Y-82100D01*
X93000Y-82100D02*
X92800Y-82300D01*
X92800Y-82300D02*
X92000Y-82300D01*
X71500Y-76300D02*
X68700Y-76300D01*
X68700Y-76300D02*
X68600Y-76200D01*
X67500Y-75700D02*
X66800Y-75000D01*
X66800Y-75000D02*
X66200Y-75000D01*
X66200Y-75000D02*
X66000Y-74800D01*
X66000Y-74800D02*
X66000Y-60700D01*
X66800Y-59800D02*
X68000Y-59800D01*
X68000Y-59800D02*
X68800Y-59000D01*
X68800Y-59000D02*
X68700Y-59000D01*
X68700Y-81000D02*
X68200Y-81000D01*
X68200Y-81000D02*
X67200Y-80000D01*
X67200Y-78300D02*
X68000Y-78300D01*
X68700Y-81000D02*
X68700Y-80550D01*
X68700Y-80550D02*
X69250Y-80000D01*
X69250Y-80000D02*
X70250Y-80000D01*
X70250Y-80000D02*
X70750Y-79500D01*
X70750Y-77300D02*
X70750Y-77050D01*
X71500Y-76300D02*
X73125Y-76300D01*
X70750Y-77050D02*
X71500Y-76300D01*
X72625Y-79983D02*
X72625Y-80375D01*
X71050Y-80600D02*
X70750Y-80300D01*
X72400Y-80600D02*
X71050Y-80600D01*
X72625Y-80375D02*
X72400Y-80600D01*
X70750Y-80300D02*
X70750Y-79500D01*
X70750Y-79500D02*
X70750Y-77300D01*
X72625Y-79983D02*
X73692Y-79983D01*
X73692Y-79983D02*
X73750Y-79925D01*
X89000Y-78300D02*
X89000Y-79300D01*
X89000Y-79300D02*
X92000Y-82300D01*
X65700Y-56000D02*
X65700Y-57200D01*
X67500Y-59000D02*
X68700Y-59000D01*
X68700Y-59000D02*
X69700Y-59000D01*
X65700Y-57200D02*
X67500Y-59000D01*
X64000Y-82300D02*
X67400Y-82300D01*
X67400Y-82300D02*
X68700Y-81000D01*
X65700Y-84000D02*
X64000Y-82300D01*
X90300Y-84000D02*
X90300Y-84550D01*
X93500Y-84750D02*
X93500Y-82500D01*
X92750Y-85500D02*
X93500Y-84750D01*
X91250Y-85500D02*
X92750Y-85500D01*
X90300Y-84550D02*
X91250Y-85500D01*
X90300Y-56000D02*
X92000Y-57700D01*
X86300Y-59000D02*
X88500Y-59000D01*
X88500Y-59000D02*
X89500Y-60000D01*
X64000Y-57700D02*
X65450Y-57700D01*
X86300Y-58550D02*
X86300Y-59000D01*
X85750Y-58000D02*
X86300Y-58550D01*
X83500Y-58000D02*
X85750Y-58000D01*
X82500Y-57000D02*
X83500Y-58000D01*
X73500Y-57000D02*
X82500Y-57000D01*
X72750Y-57750D02*
X73500Y-57000D01*
X67250Y-57750D02*
X72750Y-57750D01*
X66750Y-57250D02*
X67250Y-57750D01*
X65450Y-57700D02*
X65500Y-57750D01*
X92000Y-57700D02*
X92600Y-57700D01*
X92600Y-57700D02*
X93000Y-58100D01*
X93000Y-58100D02*
X93000Y-78800D01*
X93000Y-78800D02*
X93700Y-79500D01*
X93700Y-79500D02*
X93700Y-82300D01*
X93700Y-82300D02*
X93500Y-82500D01*
X75000Y-78425D02*
X75000Y-78000D01*
X66400Y-73000D02*
X66300Y-72900D01*
X66300Y-72900D02*
X66300Y-62600D01*
X66300Y-62600D02*
X67200Y-61700D01*
X67200Y-61700D02*
X68000Y-61700D01*
X92000Y-57700D02*
X90800Y-57700D01*
X90800Y-57700D02*
X89500Y-59000D01*
X89500Y-59000D02*
X89500Y-60000D01*
X89500Y-61200D02*
X89000Y-61700D01*
X89500Y-60000D02*
X89500Y-61200D01*
X64000Y-57700D02*
X68000Y-61700D01*
X74125Y-78300D02*
X74875Y-78300D01*
X74875Y-78300D02*
X75000Y-78425D01*
X90300Y-84000D02*
X90300Y-83000D01*
X90300Y-83000D02*
X88300Y-81000D01*
X81250Y-77550D02*
X81250Y-77300D01*
X83750Y-77300D02*
X83750Y-77800D01*
X83500Y-77050D02*
X83750Y-77300D01*
X81500Y-77050D02*
X83500Y-77050D01*
X81250Y-77300D02*
X81500Y-77050D01*
X81250Y-79650D02*
X81850Y-79650D01*
X81850Y-79650D02*
X82100Y-79400D01*
X82100Y-79400D02*
X82800Y-79400D01*
X85500Y-79300D02*
X85500Y-78900D01*
X85500Y-78900D02*
X85400Y-78800D01*
X85400Y-78800D02*
X84750Y-78800D01*
X83750Y-79800D02*
X82200Y-79800D01*
X79750Y-80350D02*
X79750Y-79650D01*
X79800Y-80400D02*
X79750Y-80350D01*
X81600Y-80400D02*
X80800Y-80400D01*
X82200Y-79800D02*
X81600Y-80400D01*
X80750Y-77550D02*
X80750Y-78050D01*
X83000Y-78800D02*
X83750Y-78800D01*
X82500Y-78300D02*
X83000Y-78800D01*
X81000Y-78300D02*
X82500Y-78300D01*
X80750Y-78050D02*
X81000Y-78300D01*
X77125Y-75000D02*
X76500Y-75000D01*
X79000Y-74375D02*
X79000Y-74000D01*
X78750Y-73750D02*
X78250Y-73750D01*
X79000Y-74000D02*
X78750Y-73750D01*
X80625Y-74375D02*
X81000Y-74000D01*
X80000Y-74375D02*
X80625Y-74375D01*
X81875Y-75000D02*
X82500Y-75000D01*
X78000Y-83050D02*
X78650Y-83050D01*
X78650Y-83050D02*
X78700Y-83100D01*
X64500Y-73375D02*
X64725Y-73375D01*
X69100Y-75900D02*
X70100Y-75900D01*
X68600Y-75400D02*
X69100Y-75900D01*
X68600Y-72600D02*
X68600Y-75400D01*
X68500Y-72500D02*
X68600Y-72600D01*
X64725Y-73375D02*
X65600Y-72500D01*
X63000Y-73300D02*
X64425Y-73300D01*
X64425Y-73300D02*
X64500Y-73375D01*
X64750Y-79375D02*
X70275Y-79375D01*
X70275Y-79375D02*
X70300Y-79400D01*
X63525Y-79511D02*
X64613Y-79511D01*
X64613Y-79511D02*
X64750Y-79375D01*
X80250Y-83050D02*
X80300Y-83050D01*
X80300Y-83050D02*
X80750Y-83500D01*
X75750Y-83050D02*
X76450Y-83050D01*
X76450Y-83050D02*
X76500Y-83000D01*
X77000Y-79175D02*
X77000Y-79500D01*
X77000Y-79500D02*
X76750Y-79750D01*
X78250Y-77550D02*
X77550Y-77550D01*
X77550Y-77550D02*
X77500Y-77600D01*
X75750Y-78800D02*
X75900Y-78800D01*
X75375Y-76675D02*
X75500Y-76800D01*
X75375Y-76300D02*
X75375Y-76675D01*
X75900Y-78800D02*
X76275Y-79175D01*
X75000Y-79175D02*
X76275Y-79175D01*
X76275Y-79175D02*
X77000Y-79175D01*
X73750Y-79175D02*
X75000Y-79175D01*
X73750Y-78300D02*
X73750Y-78050D01*
X73625Y-77925D02*
X72750Y-77925D01*
X73750Y-78050D02*
X73625Y-77925D01*
X73750Y-78300D02*
X73750Y-79175D01*
X66300Y-56000D02*
X71700Y-56000D01*
X71625Y-57000D02*
X71625Y-56075D01*
X71625Y-56075D02*
X71700Y-56000D01*
X73200Y-81000D02*
X73200Y-81925D01*
X73200Y-81925D02*
X73125Y-82000D01*
X73200Y-81000D02*
X69300Y-81000D01*
X73800Y-81000D02*
X73800Y-81925D01*
X73800Y-81925D02*
X73875Y-82000D01*
X77700Y-81000D02*
X73800Y-81000D01*
X64000Y-75700D02*
X63000Y-75700D01*
X63000Y-75700D02*
X62300Y-75000D01*
X62300Y-75000D02*
X62300Y-72000D01*
X62300Y-72000D02*
X64000Y-70300D01*
X64000Y-75700D02*
X64925Y-75700D01*
X64925Y-75700D02*
X65000Y-75625D01*
X64000Y-81700D02*
X64500Y-81700D01*
X64500Y-81700D02*
X66400Y-79800D01*
X66400Y-78200D02*
X65000Y-76800D01*
X65000Y-76800D02*
X65000Y-76375D01*
X64000Y-76300D02*
X64925Y-76300D01*
X64925Y-76300D02*
X65000Y-76375D01*
X64000Y-64700D02*
X64000Y-58300D01*
X64000Y-64700D02*
X64925Y-64700D01*
X64925Y-64700D02*
X65000Y-64625D01*
X64000Y-65300D02*
X64925Y-65300D01*
X64925Y-65300D02*
X65000Y-65375D01*
X64000Y-69700D02*
X64000Y-65300D01*
X75750Y-82450D02*
X76175Y-82450D01*
X76175Y-82450D02*
X76425Y-82200D01*
X80250Y-82450D02*
X80250Y-81825D01*
X80250Y-81825D02*
X80225Y-81800D01*
X78000Y-82450D02*
X78575Y-82450D01*
X78575Y-82450D02*
X78625Y-82400D01*
X83700Y-56000D02*
X83700Y-56925D01*
X83700Y-56925D02*
X83625Y-57000D01*
X78300Y-56000D02*
X83700Y-56000D01*
X77175Y-82200D02*
X77175Y-82825D01*
X77175Y-82825D02*
X76000Y-84000D01*
X77175Y-82200D02*
X77400Y-82200D01*
X78750Y-81450D02*
X78750Y-79650D01*
X78400Y-81800D02*
X78750Y-81450D01*
X77800Y-81800D02*
X78400Y-81800D01*
X77400Y-82200D02*
X77800Y-81800D01*
X79800Y-84000D02*
X79800Y-82825D01*
X79800Y-82825D02*
X79375Y-82400D01*
X79375Y-82400D02*
X79375Y-81775D01*
X79250Y-81650D02*
X79250Y-79650D01*
X79375Y-81775D02*
X79250Y-81650D01*
X81600Y-84000D02*
X81600Y-83600D01*
X80975Y-82975D02*
X80975Y-81800D01*
X81600Y-83600D02*
X80975Y-82975D01*
X80975Y-81800D02*
X80975Y-81175D01*
X80250Y-80450D02*
X80250Y-79650D01*
X80975Y-81175D02*
X80250Y-80450D01*
X82375Y-58000D02*
X82375Y-58925D01*
X82375Y-58925D02*
X82300Y-59000D01*
X82300Y-59000D02*
X85700Y-59000D01*
X84300Y-56000D02*
X89700Y-56000D01*
X84300Y-56000D02*
X84300Y-56925D01*
X84300Y-56925D02*
X84375Y-57000D01*
X78000Y-75925D02*
X78000Y-75125D01*
X78000Y-75125D02*
X77875Y-75000D01*
X79000Y-75125D02*
X79000Y-75925D01*
X80000Y-75125D02*
X80000Y-75925D01*
X81000Y-75925D02*
X81000Y-75125D01*
X81000Y-75125D02*
X81125Y-75000D01*
X80250Y-77550D02*
X80250Y-77425D01*
X80250Y-77425D02*
X81000Y-76675D01*
X79750Y-77550D02*
X79750Y-76925D01*
X79750Y-76925D02*
X80000Y-76675D01*
X72300Y-56000D02*
X77700Y-56000D01*
X72300Y-56000D02*
X72300Y-56925D01*
X72300Y-56925D02*
X72375Y-57000D01*
X79250Y-77550D02*
X79250Y-76925D01*
X79250Y-76925D02*
X79000Y-76675D01*
X73875Y-76300D02*
X73875Y-76675D01*
X73750Y-76800D02*
X73750Y-77300D01*
X73875Y-76675D02*
X73750Y-76800D01*
X73875Y-76300D02*
X74625Y-76300D01*
X67000Y-66375D02*
X67925Y-66375D01*
X67925Y-66375D02*
X68000Y-66300D01*
X68000Y-66300D02*
X68000Y-69700D01*
X67000Y-74375D02*
X67925Y-74375D01*
X67925Y-74375D02*
X68000Y-74300D01*
X68000Y-74300D02*
X68000Y-77700D01*
X67000Y-73625D02*
X67925Y-73625D01*
X67925Y-73625D02*
X68000Y-73700D01*
X68000Y-70300D02*
X68000Y-73700D01*
X67000Y-65625D02*
X67925Y-65625D01*
X67925Y-65625D02*
X68000Y-65700D01*
X68000Y-62300D02*
X68000Y-65700D01*
X74125Y-77300D02*
X76700Y-77300D01*
X80750Y-79100D02*
X80750Y-79650D01*
X79800Y-78150D02*
X80750Y-79100D01*
X77550Y-78150D02*
X79800Y-78150D01*
X76700Y-77300D02*
X77550Y-78150D01*
X73625Y-58000D02*
X73625Y-58925D01*
X73625Y-58925D02*
X73700Y-59000D01*
X70300Y-59000D02*
X73700Y-59000D01*
X78750Y-77550D02*
X78750Y-77425D01*
X78750Y-77425D02*
X78000Y-76675D01*
X89000Y-74300D02*
X89925Y-74300D01*
X89925Y-74300D02*
X90000Y-74375D01*
X89000Y-74300D02*
X89000Y-77700D01*
X74375Y-58000D02*
X74375Y-58925D01*
X74375Y-58925D02*
X74300Y-59000D01*
X74300Y-59000D02*
X77700Y-59000D01*
X90000Y-73625D02*
X89075Y-73625D01*
X89075Y-73625D02*
X89000Y-73700D01*
X89000Y-70300D02*
X89000Y-73700D01*
X70625Y-84000D02*
X70625Y-83075D01*
X70625Y-83075D02*
X70700Y-83000D01*
X66300Y-84000D02*
X70625Y-84000D01*
X77700Y-84000D02*
X77700Y-84900D01*
X72975Y-85600D02*
X71375Y-84000D01*
X77000Y-85600D02*
X72975Y-85600D01*
X77700Y-84900D02*
X77000Y-85600D01*
X71300Y-83000D02*
X71300Y-83925D01*
X71300Y-83925D02*
X71375Y-84000D01*
X83625Y-84000D02*
X83625Y-84975D01*
X78300Y-85500D02*
X78300Y-84000D01*
X78600Y-85800D02*
X78300Y-85500D01*
X82800Y-85800D02*
X78600Y-85800D01*
X83625Y-84975D02*
X82800Y-85800D01*
X83625Y-84000D02*
X83625Y-83075D01*
X83625Y-83075D02*
X83700Y-83000D01*
X89700Y-84000D02*
X89700Y-85300D01*
X84375Y-85175D02*
X84375Y-84000D01*
X85000Y-85800D02*
X84375Y-85175D01*
X89200Y-85800D02*
X85000Y-85800D01*
X89700Y-85300D02*
X89200Y-85800D01*
X84300Y-83000D02*
X84300Y-83925D01*
X84300Y-83925D02*
X84375Y-84000D01*
X89000Y-65700D02*
X89925Y-65700D01*
X89925Y-65700D02*
X90000Y-65625D01*
X89000Y-62300D02*
X89000Y-65700D01*
X72250Y-79117D02*
X72250Y-78675D01*
X72250Y-78675D02*
X72000Y-78425D01*
X72000Y-78425D02*
X73250Y-78425D01*
X73250Y-78425D02*
X73375Y-78300D01*
X89000Y-66300D02*
X89925Y-66300D01*
X89925Y-66300D02*
X90000Y-66375D01*
X89000Y-66300D02*
X89000Y-69700D01*
X81625Y-58000D02*
X81625Y-58925D01*
X81625Y-58925D02*
X81700Y-59000D01*
X78300Y-59000D02*
X81700Y-59000D01*
X92000Y-75625D02*
X91075Y-75625D01*
X91075Y-75625D02*
X91000Y-75700D01*
X92000Y-70300D02*
X92000Y-75625D01*
X92000Y-76375D02*
X92000Y-81700D01*
X91000Y-76300D02*
X91925Y-76300D01*
X91925Y-76300D02*
X92000Y-76375D01*
X92000Y-63700D02*
X92000Y-58300D01*
X92000Y-63700D02*
X91075Y-63700D01*
X91075Y-63700D02*
X91000Y-63625D01*
X92000Y-69700D02*
X92000Y-64300D01*
X91000Y-64375D02*
X91925Y-64375D01*
X91925Y-64375D02*
X92000Y-64300D01*
X77200Y-83800D02*
X77200Y-84800D01*
X74800Y-84600D02*
X74800Y-82600D01*
X74800Y-82600D02*
X75800Y-81600D01*
X75800Y-81600D02*
X77700Y-81600D01*
X78300Y-81000D02*
X77700Y-81600D01*
X78600Y-83600D02*
X78400Y-83400D01*
X78400Y-83400D02*
X77600Y-83400D01*
X77600Y-83400D02*
X77200Y-83800D01*
X83000Y-84600D02*
X83000Y-84800D01*
X82400Y-81000D02*
X82000Y-81400D01*
X82000Y-81400D02*
X82000Y-82800D01*
X82000Y-82800D02*
X83000Y-83800D01*
X83000Y-83800D02*
X83000Y-84600D01*
X82400Y-81000D02*
X82700Y-81000D01*
X78600Y-85200D02*
X78600Y-84800D01*
X78800Y-85400D02*
X78600Y-85200D01*
X82400Y-85400D02*
X78800Y-85400D01*
X83000Y-84800D02*
X82400Y-85400D01*
X78600Y-84800D02*
X78600Y-83600D01*
X74800Y-85000D02*
X74800Y-84600D01*
X75000Y-85200D02*
X74800Y-85000D01*
X76800Y-85200D02*
X75000Y-85200D01*
X77200Y-84800D02*
X76800Y-85200D01*
X82700Y-81000D02*
X82700Y-81925D01*
X82700Y-81925D02*
X82625Y-82000D01*
X83300Y-81000D02*
X83300Y-81925D01*
X83300Y-81925D02*
X83375Y-82000D01*
X87700Y-81000D02*
X87700Y-81500D01*
X83800Y-81000D02*
X83300Y-81000D01*
X84800Y-82000D02*
X83800Y-81000D01*
X84800Y-85000D02*
X84800Y-82000D01*
X85200Y-85400D02*
X84800Y-85000D01*
X89000Y-85400D02*
X85200Y-85400D01*
X89200Y-85200D02*
X89000Y-85400D01*
X89200Y-83000D02*
X89200Y-85200D01*
X87700Y-81500D02*
X89200Y-83000D01*
X78250Y-79650D02*
X78250Y-79350D01*
X78250Y-79350D02*
X78800Y-78800D01*
X84100Y-76800D02*
X84600Y-76800D01*
X84600Y-76800D02*
X84750Y-76950D01*
X84750Y-76950D02*
X84750Y-77800D01*
X73550Y-77700D02*
X74700Y-77700D01*
X74700Y-77700D02*
X74800Y-77600D01*
X74800Y-77600D02*
X76175Y-77600D01*
X76175Y-77600D02*
X76275Y-77700D01*
X66400Y-78625D02*
X66925Y-78625D01*
X66925Y-78625D02*
X67100Y-78800D01*
X67100Y-78800D02*
X69800Y-78800D01*
X69800Y-78800D02*
X70300Y-78300D01*
X71100Y-78200D02*
X71625Y-77675D01*
X71625Y-77675D02*
X72000Y-77675D01*
X64750Y-78625D02*
X66400Y-78625D01*
X66400Y-78625D02*
X66475Y-78625D01*
X66475Y-78625D02*
X66800Y-78300D01*
X66800Y-78300D02*
X66800Y-78000D01*
X64500Y-74125D02*
X64725Y-74125D01*
X64725Y-74125D02*
X66800Y-76200D01*
X66800Y-76200D02*
X66800Y-78000D01*
X63000Y-74300D02*
X64325Y-74300D01*
X64325Y-74300D02*
X64500Y-74125D01*
X63525Y-78507D02*
X64632Y-78507D01*
X64632Y-78507D02*
X64750Y-78625D01*
X77000Y-78425D02*
X77775Y-78425D01*
X78250Y-78900D02*
X78250Y-79650D01*
X77775Y-78425D02*
X78250Y-78900D01*
X73375Y-77300D02*
X73375Y-77525D01*
X76275Y-77700D02*
X77000Y-78425D01*
X73375Y-77525D02*
X73550Y-77700D01*
X72750Y-77175D02*
X72500Y-77175D01*
X72500Y-77175D02*
X72000Y-77675D01*
X73375Y-77300D02*
X72875Y-77300D01*
X72875Y-77300D02*
X72750Y-77175D01*
M02*
