G04 (created by PCBNEW (2013-07-07 BZR 4022)-stable) date 10/4/2015 12:30:07 PM*
%MOIN*%
G04 Gerber Fmt 3.4, Leading zero omitted, Abs format*
%FSLAX34Y34*%
G01*
G70*
G90*
G04 APERTURE LIST*
%ADD10C,0.00590551*%
%ADD11C,0.011811*%
%ADD12C,0.0039*%
%ADD13C,0.0043*%
%ADD14O,0.0629921X0.0354331*%
%ADD15R,0.06X0.06*%
%ADD16C,0.06*%
%ADD17R,0.055X0.055*%
%ADD18C,0.055*%
%ADD19R,0.035X0.055*%
%ADD20C,0.2*%
G04 APERTURE END LIST*
G54D10*
G54D11*
X85398Y-70398D02*
X85060Y-70398D01*
X85229Y-70989D02*
X85229Y-70398D01*
X84751Y-70398D02*
X84638Y-70398D01*
X84582Y-70426D01*
X84526Y-70482D01*
X84498Y-70595D01*
X84498Y-70792D01*
X84526Y-70904D01*
X84582Y-70960D01*
X84638Y-70989D01*
X84751Y-70989D01*
X84807Y-70960D01*
X84863Y-70904D01*
X84892Y-70792D01*
X84892Y-70595D01*
X84863Y-70482D01*
X84807Y-70426D01*
X84751Y-70398D01*
X84245Y-70398D02*
X84245Y-70876D01*
X84217Y-70932D01*
X84188Y-70960D01*
X84132Y-70989D01*
X84020Y-70989D01*
X83964Y-70960D01*
X83935Y-70932D01*
X83907Y-70876D01*
X83907Y-70398D01*
X83289Y-70932D02*
X83317Y-70960D01*
X83401Y-70989D01*
X83457Y-70989D01*
X83542Y-70960D01*
X83598Y-70904D01*
X83626Y-70848D01*
X83654Y-70735D01*
X83654Y-70651D01*
X83626Y-70539D01*
X83598Y-70482D01*
X83542Y-70426D01*
X83457Y-70398D01*
X83401Y-70398D01*
X83317Y-70426D01*
X83289Y-70454D01*
X83035Y-70989D02*
X83035Y-70398D01*
X83035Y-70679D02*
X82698Y-70679D01*
X82698Y-70989D02*
X82698Y-70398D01*
X81714Y-70595D02*
X81714Y-70989D01*
X81854Y-70370D02*
X81995Y-70792D01*
X81629Y-70792D01*
X85398Y-63648D02*
X85060Y-63648D01*
X85229Y-64239D02*
X85229Y-63648D01*
X84751Y-63648D02*
X84638Y-63648D01*
X84582Y-63676D01*
X84526Y-63732D01*
X84498Y-63845D01*
X84498Y-64042D01*
X84526Y-64154D01*
X84582Y-64210D01*
X84638Y-64239D01*
X84751Y-64239D01*
X84807Y-64210D01*
X84863Y-64154D01*
X84892Y-64042D01*
X84892Y-63845D01*
X84863Y-63732D01*
X84807Y-63676D01*
X84751Y-63648D01*
X84245Y-63648D02*
X84245Y-64126D01*
X84217Y-64182D01*
X84188Y-64210D01*
X84132Y-64239D01*
X84020Y-64239D01*
X83964Y-64210D01*
X83935Y-64182D01*
X83907Y-64126D01*
X83907Y-63648D01*
X83289Y-64182D02*
X83317Y-64210D01*
X83401Y-64239D01*
X83457Y-64239D01*
X83542Y-64210D01*
X83598Y-64154D01*
X83626Y-64098D01*
X83654Y-63985D01*
X83654Y-63901D01*
X83626Y-63789D01*
X83598Y-63732D01*
X83542Y-63676D01*
X83457Y-63648D01*
X83401Y-63648D01*
X83317Y-63676D01*
X83289Y-63704D01*
X83035Y-64239D02*
X83035Y-63648D01*
X83035Y-63929D02*
X82698Y-63929D01*
X82698Y-64239D02*
X82698Y-63648D01*
X82023Y-63648D02*
X81658Y-63648D01*
X81854Y-63873D01*
X81770Y-63873D01*
X81714Y-63901D01*
X81686Y-63929D01*
X81658Y-63985D01*
X81658Y-64126D01*
X81686Y-64182D01*
X81714Y-64210D01*
X81770Y-64239D01*
X81939Y-64239D01*
X81995Y-64210D01*
X82023Y-64182D01*
X75398Y-63648D02*
X75060Y-63648D01*
X75229Y-64239D02*
X75229Y-63648D01*
X74751Y-63648D02*
X74638Y-63648D01*
X74582Y-63676D01*
X74526Y-63732D01*
X74498Y-63845D01*
X74498Y-64042D01*
X74526Y-64154D01*
X74582Y-64210D01*
X74638Y-64239D01*
X74751Y-64239D01*
X74807Y-64210D01*
X74863Y-64154D01*
X74892Y-64042D01*
X74892Y-63845D01*
X74863Y-63732D01*
X74807Y-63676D01*
X74751Y-63648D01*
X74245Y-63648D02*
X74245Y-64126D01*
X74217Y-64182D01*
X74188Y-64210D01*
X74132Y-64239D01*
X74020Y-64239D01*
X73964Y-64210D01*
X73935Y-64182D01*
X73907Y-64126D01*
X73907Y-63648D01*
X73289Y-64182D02*
X73317Y-64210D01*
X73401Y-64239D01*
X73457Y-64239D01*
X73542Y-64210D01*
X73598Y-64154D01*
X73626Y-64098D01*
X73654Y-63985D01*
X73654Y-63901D01*
X73626Y-63789D01*
X73598Y-63732D01*
X73542Y-63676D01*
X73457Y-63648D01*
X73401Y-63648D01*
X73317Y-63676D01*
X73289Y-63704D01*
X73035Y-64239D02*
X73035Y-63648D01*
X73035Y-63929D02*
X72698Y-63929D01*
X72698Y-64239D02*
X72698Y-63648D01*
X71995Y-63704D02*
X71967Y-63676D01*
X71911Y-63648D01*
X71770Y-63648D01*
X71714Y-63676D01*
X71686Y-63704D01*
X71658Y-63760D01*
X71658Y-63817D01*
X71686Y-63901D01*
X72023Y-64239D01*
X71658Y-64239D01*
X75398Y-70648D02*
X75060Y-70648D01*
X75229Y-71239D02*
X75229Y-70648D01*
X74751Y-70648D02*
X74638Y-70648D01*
X74582Y-70676D01*
X74526Y-70732D01*
X74498Y-70845D01*
X74498Y-71042D01*
X74526Y-71154D01*
X74582Y-71210D01*
X74638Y-71239D01*
X74751Y-71239D01*
X74807Y-71210D01*
X74863Y-71154D01*
X74892Y-71042D01*
X74892Y-70845D01*
X74863Y-70732D01*
X74807Y-70676D01*
X74751Y-70648D01*
X74245Y-70648D02*
X74245Y-71126D01*
X74217Y-71182D01*
X74188Y-71210D01*
X74132Y-71239D01*
X74020Y-71239D01*
X73964Y-71210D01*
X73935Y-71182D01*
X73907Y-71126D01*
X73907Y-70648D01*
X73289Y-71182D02*
X73317Y-71210D01*
X73401Y-71239D01*
X73457Y-71239D01*
X73542Y-71210D01*
X73598Y-71154D01*
X73626Y-71098D01*
X73654Y-70985D01*
X73654Y-70901D01*
X73626Y-70789D01*
X73598Y-70732D01*
X73542Y-70676D01*
X73457Y-70648D01*
X73401Y-70648D01*
X73317Y-70676D01*
X73289Y-70704D01*
X73035Y-71239D02*
X73035Y-70648D01*
X73035Y-70929D02*
X72698Y-70929D01*
X72698Y-71239D02*
X72698Y-70648D01*
X71658Y-71239D02*
X71995Y-71239D01*
X71826Y-71239D02*
X71826Y-70648D01*
X71883Y-70732D01*
X71939Y-70789D01*
X71995Y-70817D01*
G54D12*
X89400Y-56700D02*
G75*
G03X89400Y-56700I-50J0D01*
G74*
G01*
X89800Y-56700D02*
X89400Y-56700D01*
X89400Y-56700D02*
X89400Y-57300D01*
X89400Y-57300D02*
X89800Y-57300D01*
X90200Y-57300D02*
X90600Y-57300D01*
X90600Y-57300D02*
X90600Y-56700D01*
X90600Y-56700D02*
X90200Y-56700D01*
X65700Y-59300D02*
G75*
G03X65700Y-59300I-50J0D01*
G74*
G01*
X65200Y-59300D02*
X65600Y-59300D01*
X65600Y-59300D02*
X65600Y-58700D01*
X65600Y-58700D02*
X65200Y-58700D01*
X64800Y-58700D02*
X64400Y-58700D01*
X64400Y-58700D02*
X64400Y-59300D01*
X64400Y-59300D02*
X64800Y-59300D01*
X66700Y-83300D02*
G75*
G03X66700Y-83300I-50J0D01*
G74*
G01*
X66200Y-83300D02*
X66600Y-83300D01*
X66600Y-83300D02*
X66600Y-82700D01*
X66600Y-82700D02*
X66200Y-82700D01*
X65800Y-82700D02*
X65400Y-82700D01*
X65400Y-82700D02*
X65400Y-83300D01*
X65400Y-83300D02*
X65800Y-83300D01*
X89400Y-81700D02*
G75*
G03X89400Y-81700I-50J0D01*
G74*
G01*
X89800Y-81700D02*
X89400Y-81700D01*
X89400Y-81700D02*
X89400Y-82300D01*
X89400Y-82300D02*
X89800Y-82300D01*
X90200Y-82300D02*
X90600Y-82300D01*
X90600Y-82300D02*
X90600Y-81700D01*
X90600Y-81700D02*
X90200Y-81700D01*
G54D13*
X90126Y-57829D02*
X90192Y-57735D01*
X90239Y-57829D02*
X90239Y-57632D01*
X90164Y-57632D01*
X90145Y-57642D01*
X90136Y-57651D01*
X90126Y-57670D01*
X90126Y-57698D01*
X90136Y-57717D01*
X90145Y-57726D01*
X90164Y-57735D01*
X90239Y-57735D01*
X90060Y-57632D02*
X89939Y-57632D01*
X90004Y-57707D01*
X89976Y-57707D01*
X89957Y-57717D01*
X89948Y-57726D01*
X89939Y-57745D01*
X89939Y-57792D01*
X89948Y-57810D01*
X89957Y-57820D01*
X89976Y-57829D01*
X90032Y-57829D01*
X90051Y-57820D01*
X90060Y-57810D01*
X89873Y-57632D02*
X89751Y-57632D01*
X89817Y-57707D01*
X89788Y-57707D01*
X89770Y-57717D01*
X89760Y-57726D01*
X89751Y-57745D01*
X89751Y-57792D01*
X89760Y-57810D01*
X89770Y-57820D01*
X89788Y-57829D01*
X89845Y-57829D01*
X89863Y-57820D01*
X89873Y-57810D01*
X65126Y-59579D02*
X65192Y-59485D01*
X65239Y-59579D02*
X65239Y-59382D01*
X65164Y-59382D01*
X65145Y-59392D01*
X65136Y-59401D01*
X65126Y-59420D01*
X65126Y-59448D01*
X65136Y-59467D01*
X65145Y-59476D01*
X65164Y-59485D01*
X65239Y-59485D01*
X65060Y-59382D02*
X64939Y-59382D01*
X65004Y-59457D01*
X64976Y-59457D01*
X64957Y-59467D01*
X64948Y-59476D01*
X64939Y-59495D01*
X64939Y-59542D01*
X64948Y-59560D01*
X64957Y-59570D01*
X64976Y-59579D01*
X65032Y-59579D01*
X65051Y-59570D01*
X65060Y-59560D01*
X64863Y-59401D02*
X64854Y-59392D01*
X64835Y-59382D01*
X64788Y-59382D01*
X64770Y-59392D01*
X64760Y-59401D01*
X64751Y-59420D01*
X64751Y-59439D01*
X64760Y-59467D01*
X64873Y-59579D01*
X64751Y-59579D01*
X66126Y-82579D02*
X66192Y-82485D01*
X66239Y-82579D02*
X66239Y-82382D01*
X66164Y-82382D01*
X66145Y-82392D01*
X66136Y-82401D01*
X66126Y-82420D01*
X66126Y-82448D01*
X66136Y-82467D01*
X66145Y-82476D01*
X66164Y-82485D01*
X66239Y-82485D01*
X66060Y-82382D02*
X65939Y-82382D01*
X66004Y-82457D01*
X65976Y-82457D01*
X65957Y-82467D01*
X65948Y-82476D01*
X65939Y-82495D01*
X65939Y-82542D01*
X65948Y-82560D01*
X65957Y-82570D01*
X65976Y-82579D01*
X66032Y-82579D01*
X66051Y-82570D01*
X66060Y-82560D01*
X65751Y-82579D02*
X65863Y-82579D01*
X65807Y-82579D02*
X65807Y-82382D01*
X65826Y-82410D01*
X65845Y-82429D01*
X65863Y-82439D01*
X90126Y-82579D02*
X90192Y-82485D01*
X90239Y-82579D02*
X90239Y-82382D01*
X90164Y-82382D01*
X90145Y-82392D01*
X90136Y-82401D01*
X90126Y-82420D01*
X90126Y-82448D01*
X90136Y-82467D01*
X90145Y-82476D01*
X90164Y-82485D01*
X90239Y-82485D01*
X90060Y-82382D02*
X89939Y-82382D01*
X90004Y-82457D01*
X89976Y-82457D01*
X89957Y-82467D01*
X89948Y-82476D01*
X89939Y-82495D01*
X89939Y-82542D01*
X89948Y-82560D01*
X89957Y-82570D01*
X89976Y-82579D01*
X90032Y-82579D01*
X90051Y-82570D01*
X90060Y-82560D01*
X89770Y-82448D02*
X89770Y-82579D01*
X89817Y-82373D02*
X89863Y-82514D01*
X89742Y-82514D01*
%LPC*%
G54D14*
X62600Y-80299D03*
X62600Y-77700D03*
G54D15*
X83750Y-77800D03*
G54D16*
X84750Y-77800D03*
X83750Y-78800D03*
X84750Y-78800D03*
X83750Y-79800D03*
X84750Y-79800D03*
G54D17*
X63000Y-73300D03*
G54D18*
X63000Y-74300D03*
G54D17*
X76000Y-84000D03*
X79800Y-84000D03*
X81600Y-84000D03*
X93000Y-80400D03*
G54D19*
X89625Y-57000D03*
X90375Y-57000D03*
X65375Y-59000D03*
X64625Y-59000D03*
X66375Y-83000D03*
X65625Y-83000D03*
X89625Y-82000D03*
X90375Y-82000D03*
G54D20*
X64000Y-56000D03*
X92000Y-56000D03*
X92000Y-84000D03*
X64000Y-84000D03*
M02*
