M48
;DRILL file {Pcbnew (2013-07-07 BZR 4022)-stable} date 10/4/2015 12:26:03 PM
;FORMAT={3:3/ absolute / metric / suppress leading zeros}
FMAT,2
METRIC,TZ
T1C0.500
T2C0.635
T3C0.813
T4C1.016
T5C3.251
%
G90
G05
M71
T2
X166370Y-146685
X166624Y-184150
X167640Y-154178
X168656Y-185420
X168656Y-198628
X168656Y-202692
X169545Y-145415
X169672Y-151892
X170688Y-198882
X170688Y-203200
X171450Y-192278
X173990Y-184150
X174244Y-193548
X178054Y-192786
X178562Y-198882
X178562Y-201676
X180594Y-198628
X185420Y-200660
X190500Y-198120
X191135Y-202565
X191770Y-195072
X192405Y-200152
X194310Y-190500
X194310Y-210820
X194945Y-202565
X196850Y-197104
X197485Y-203835
X198755Y-187325
X199898Y-211074
X200152Y-200152
X202692Y-204216
X205105Y-212090
X205232Y-204216
X205740Y-187960
X209550Y-190500
X210312Y-201676
X213614Y-195072
X214630Y-205740
X217170Y-201422
T3
X160020Y-186182
X160020Y-188722
X193040Y-213360
X202692Y-213360
X207264Y-213360
X236220Y-204216
T4
X212725Y-197612
X212725Y-200152
X212725Y-202692
X215265Y-197612
X215265Y-200152
X215265Y-202692
T5
X162560Y-142240
X162560Y-213360
X233680Y-142240
X233680Y-213360
T1
X159354Y-197360G85X158654Y-197360
G05
X159354Y-203960G85X158654Y-203960
G05
T0
M30
